# xmcd CD database file
#
# Track frame offsets:
#	150
#	20512
#	43127
#	61851
#	80061
#	97410
#	118655
#	151157
#	168209
#
# Disc length: 2499 seconds
#
# Revision: 1
# Processed by: cddbd v1.5.2PL0 Copyright (c) Steve Scherf et al.
# Submitted via: CDex 1.70beta2
#
DISCID=7109c109
DTITLE=むらなが吟 - のんびり行きましょう
DYEAR=2010
DGENRE=Blues
TTITLE0=眠れぬ夜
TTITLE1=Gulgul Earth
TTITLE2=風よ吹かないで
TTITLE3=ドシャブリのBLUES
TTITLE4=君を守るのは僕なんだ
TTITLE5=MAHOROBA
TTITLE6=道
TTITLE7=のんびり行きましょう
TTITLE8=この街
EXTD=YEAR: 2010
EXTT0=
EXTT1=
EXTT2=
EXTT3=
EXTT4=
EXTT5=
EXTT6=
EXTT7=
EXTT8=
PLAYORDER=
